<?xml version="1.0" encoding="UTF-8" standalone="no"?>
<!-- Created with Inkscape (http://www.inkscape.org/) -->

<svg
   xmlns:dc="http://purl.org/dc/elements/1.1/"
   xmlns:cc="http://creativecommons.org/ns#"
   xmlns:rdf="http://www.w3.org/1999/02/22-rdf-syntax-ns#"
   xmlns:svg="http://www.w3.org/2000/svg"
   xmlns="http://www.w3.org/2000/svg"
   xmlns:sodipodi="http://sodipodi.sourceforge.net/DTD/sodipodi-0.dtd"
   xmlns:inkscape="http://www.inkscape.org/namespaces/inkscape"
   width="105"
   height="105.00002"
   viewBox="0 0 105 105.00002"
   id="svg2"
   version="1.1"
   inkscape:version="0.91 r13725"
   sodipodi:docname="logo-square-c.svg"
   inkscape:export-filename="D:\GitHub\Cam-Grade\design\favicon24.png"
   inkscape:export-xdpi="20.571428"
   inkscape:export-ydpi="20.571428">
  <defs
     id="defs4" />
  <sodipodi:namedview
     id="base"
     pagecolor="#ffffff"
     bordercolor="#666666"
     borderopacity="1.0"
     inkscape:pageopacity="0.0"
     inkscape:pageshadow="2"
     inkscape:zoom="5.6568543"
     inkscape:cx="54.651363"
     inkscape:cy="54.77382"
     inkscape:document-units="px"
     inkscape:current-layer="layer1"
     showgrid="true"
     units="px"
     fit-margin-top="0"
     fit-margin-left="0"
     fit-margin-right="0"
     fit-margin-bottom="0"
     inkscape:showpageshadow="false"
     inkscape:window-width="2048"
     inkscape:window-height="1089"
     inkscape:window-x="-8"
     inkscape:window-y="-8"
     inkscape:window-maximized="1"
     inkscape:object-nodes="true"
     inkscape:snap-grids="false"
     showguides="true"
     inkscape:guide-bbox="true">
    <inkscape:grid
       type="xygrid"
       id="grid4136"
       originx="2.5"
       originy="2.500017" />
  </sodipodi:namedview>
  <metadata
     id="metadata7">
    <rdf:RDF>
      <cc:Work
         rdf:about="">
        <dc:format>image/svg+xml</dc:format>
        <dc:type
           rdf:resource="http://purl.org/dc/dcmitype/StillImage" />
        <dc:title />
      </cc:Work>
    </rdf:RDF>
  </metadata>
  <g
     inkscape:label="Layer 1"
     inkscape:groupmode="layer"
     id="layer1"
     transform="translate(2.5,-949.86218)">
    <path
       inkscape:connector-curvature="0"
       id="path4139"
       style="font-style:normal;font-variant:normal;font-weight:normal;font-stretch:normal;font-size:90px;line-height:125%;font-family:'AMCAP Eternal';-inkscape-font-specification:'AMCAP Eternal, Normal';text-align:start;letter-spacing:0px;word-spacing:0px;writing-mode:lr-tb;text-anchor:start;fill:#000000;fill-opacity:1;stroke:none;stroke-width:1px;stroke-linecap:butt;stroke-linejoin:miter;stroke-opacity:1"
       d="m 31.346905,1035.1896 c -2.58,0 -4.77,-0.21 -6.57,-0.63 -1.74,-0.48 -3.18,-1.23 -4.32,-2.25 -1.08,-1.08 -1.89,-2.46 -2.43,-4.14 -0.48,-1.74 -0.72,-3.87 -0.72,-6.39 l 0,-38.43002 c 0,-2.7 0.27,-4.92 0.81,-6.66 0.54,-1.74 1.38,-3.12 2.52,-4.14 1.2,-1.02 2.7,-1.74 4.5,-2.16 1.86,-0.42 4.11,-0.63 6.75,-0.63 l 28.35,0 3.69,17.46 -22.68,0 c -1.2,0 -2.04,0.24 -2.52,0.72 -0.42,0.42 -0.63,1.23 -0.63,2.43 l 0,23.76002 c 0,0.78 0.03,1.41 0.09,1.89 0.12,0.42 0.3,0.78 0.54,1.08 0.3,0.24 0.69,0.42 1.17,0.54 0.54,0.06 1.26,0.09 2.16,0.09 l 14.456825,0 -4.41,17.46 z"
       sodipodi:nodetypes="scccsssccsccsssscccsccs"
       inkscape:export-xdpi="27.428572"
       inkscape:export-ydpi="27.428572" />
    <path
       id="path4144"
       style="fill:none;fill-rule:evenodd;stroke:#000000;stroke-width:5;stroke-linecap:butt;stroke-linejoin:miter;stroke-miterlimit:4;stroke-dasharray:none;stroke-opacity:1"
       d="m 0,952.36218 0,100.00002 100,0 0,-100.00002 z m 10,90.00002 0,-80.00002 80,0 0,80.00002 z"
       inkscape:connector-curvature="0"
       sodipodi:nodetypes="cccccccccc" />
    <path
       inkscape:connector-curvature="0"
       id="path4139-5"
       style="font-style:normal;font-variant:normal;font-weight:normal;font-stretch:normal;font-size:90px;line-height:125%;font-family:'AMCAP Eternal';-inkscape-font-specification:'AMCAP Eternal, Normal';text-align:start;letter-spacing:0px;word-spacing:0px;writing-mode:lr-tb;text-anchor:start;fill:#000000;fill-opacity:1;stroke:none;stroke-width:1px;stroke-linecap:butt;stroke-linejoin:miter;stroke-opacity:1"
       d="m 63.474415,1011.6115 -9.444365,0 -3.750388,-14.86502 33.058949,0 -9.699057,38.44312 -16.113804,0 z"
       sodipodi:nodetypes="ccccccc" />
  </g>
</svg>
